/* XPM */
static char *_a46b2b3b2274fb786957ec146d24992hJQSCn2MyKgwP1re[] = {
/* columns rows colors chars-per-pixel */
"48 48 7 1 ",
"  c None",
". c black",
"X c #9D1818",
"o c #E62222",
"O c #FC5B5B",
"+ c #FFA3A3",
"@ c white",
/* pixels */
"                                                ",
"                                                ",
"                                                ",
"               ...............                  ",
"               ...............                  ",
"               ...............                  ",
"         ......@@@@@@@@@@@@@@@......            ",
"         ......@@@@@@@@@@@@@@@......            ",
"         ......@@@@@@@@@@@@@@@......            ",
"      ...@@@++++++@@@@@@@@@++++++@@@...         ",
"      ...@@@++++++@@@@@@@@@++++++@@@...         ",
"      ...@@@++++++@@@@@@@@@++++++@@@...         ",
"   ...@@@OOOOOO@@@+++@@@+++@@@OOOOOO@@@...      ",
"   ...@@@OOOOOO@@@+++@@@+++@@@OOOOOO@@@...      ",
"   ...@@@OOOOOO@@@+++@@@+++@@@OOOOOO@@@...      ",
"...@@@OOOOOO+++OOOOOO@@@OOOOOO+++OOOOOO@@@...   ",
"...@@@OOOOOO+++OOOOOO@@@OOOOOO+++OOOOOO@@@...   ",
"...@@@OOOOOO+++OOOOOO@@@OOOOOO+++OOOOOO@@@...   ",
"...+++oooOOOoooooo@@@@@@@@@ooooooOOOooo+++...   ",
"...+++oooOOOoooooo@@@@@@@@@ooooooOOOooo+++...   ",
"...+++oooOOOoooooo@@@@@@@@@ooooooOOOooo+++...   ",
"...ooo+++++++++@@@@@@@@@@@@@@@+++++++++ooo...   ",
"...ooo+++++++++@@@@@@@@@@@@@@@+++++++++ooo...   ",
"...ooo+++++++++@@@@@@@@@@@@@@@+++++++++ooo...   ",
"   ...XXXXXX+++oooXXX@@@XXXooo+++XXXXXX...      ",
"   ...XXXXXX+++oooXXX@@@XXXooo+++XXXXXX...      ",
"   ...XXXXXX+++oooXXX@@@XXXooo+++XXXXXX...      ",
"      ...XXXooo+++ooo@@@ooo+++oooXXX...         ",
"      ...XXXooo+++ooo@@@ooo+++oooXXX...         ",
"      ...XXXooo+++ooo@@@ooo+++oooXXX...         ",
"         ...XXXoooooo+++ooooooXXX...            ",
"         ...XXXoooooo+++ooooooXXX...            ",
"         ...XXXoooooo+++ooooooXXX...            ",
"            ...XXXooo+++oooXXX...               ",
"            ...XXXooo+++oooXXX...               ",
"            ...XXXooo+++oooXXX...               ",
"               ...XXX+++XXX...                  ",
"               ...XXX+++XXX...                  ",
"               ...XXX+++XXX...                  ",
"                  ...ooo...                     ",
"                  ...ooo...                     ",
"                  ...ooo...                     ",
"                     ...                        ",
"                     ...                        ",
"                     ...                        ",
"                                                ",
"                                                ",
"                                                "
};
