/* XPM */
static char *_c6241cbc8f7411093a95aefd31ef13emEHJkYG4Jblbu2rb[] = {
/* columns rows colors chars-per-pixel */
"50 50 133 2 ",
"   c #3E3A35",
".  c #423C37",
"X  c #433E39",
"o  c #46413B",
"O  c #4A453E",
"+  c #4C483F",
"@  c #4C4740",
"#  c #4E4942",
"$  c #524D45",
"%  c #544F48",
"&  c #555047",
"*  c #565149",
"=  c #5A544C",
"-  c #5E584F",
";  c #5D5750",
":  c #5F5950",
">  c #635D54",
",  c #645D54",
"<  c #645C55",
"1  c #645E54",
"2  c #655E54",
"3  c #655E55",
"4  c #655F55",
"5  c #665F56",
"6  c #635C53",
"7  c #675F58",
"8  c #666056",
"9  c #676056",
"0  c #676156",
"q  c #676056",
"w  c #686057",
"e  c #686157",
"r  c #696157",
"t  c #686257",
"y  c #686157",
"u  c #676058",
"i  c #686158",
"p  c #696158",
"a  c #696258",
"s  c #696259",
"d  c #6A6359",
"f  c #69615A",
"g  c #6B635A",
"h  c #6A645A",
"j  c #6B645A",
"k  c #6C645B",
"l  c #6C655B",
"z  c #6D655C",
"x  c #6E665C",
"c  c #6E675C",
"v  c #6F675D",
"b  c #6B645A",
"n  c #6E685D",
"m  c #6F685D",
"M  c #6F685E",
"N  c #70675D",
"B  c #70685D",
"V  c #70695E",
"C  c #70695F",
"Z  c #71695E",
"A  c #716961",
"S  c #716A60",
"D  c #726A60",
"F  c #736A61",
"G  c #736B61",
"H  c #756D62",
"J  c #766E63",
"K  c #766E65",
"L  c #776F65",
"P  c #746C62",
"I  c #786F65",
"U  c #777066",
"Y  c #777065",
"T  c #797166",
"R  c #7A7167",
"E  c #7A7267",
"W  c #797166",
"Q  c #7B7368",
"!  c #7C7368",
"~  c #7C7369",
"^  c #7C7468",
"/  c #7C7469",
"(  c #7D7569",
")  c #7E756B",
"_  c #7D746C",
"`  c #7D746A",
"'  c #80776C",
"]  c #837A6F",
"[  c #847B6F",
"{  c #857C6F",
"}  c #82796E",
"|  c #847B70",
" . c #857C70",
".. c #867C70",
"X. c #877E75",
"o. c #857C71",
"O. c #887E73",
"+. c #887F73",
"@. c #8A7F75",
"#. c #897E73",
"$. c #898075",
"%. c #8A8074",
"&. c #8A8175",
"*. c #8B8278",
"=. c #8E8479",
"-. c #8E847A",
";. c #8F867C",
":. c #8E8478",
">. c #908679",
",. c #92867B",
"<. c #90867A",
"1. c #958A7E",
"2. c #948A7D",
"3. c #968C80",
"4. c #9A8F80",
"5. c #998F83",
"6. c #9E9386",
"7. c #9F9588",
"8. c #A09488",
"9. c #A19689",
"0. c #A4988B",
"q. c #A59A8D",
"w. c #A69A8D",
"e. c #A89C8F",
"r. c #AB9F91",
"t. c #ACA192",
"y. c #B1A598",
"u. c #B6AA9C",
"i. c #BAAB9D",
"p. c #B1ACA1",
"a. c #BEB0A2",
"s. c #C0B3A5",
"d. c #D5C5B6",
/* pixels */
"* # & & + = : I A 7 ; # # @ X @ @ # @ @ # # o % > ; ; 7 * 6 @ o + & & = 0 ' ^ = + % & & $ & * = $ & ",
"+ # $ % - $ - - # # % ; = %   % @ % $ $ $ % * $ * > 6 , 6 = - % & + + & = { W = % + 6 #.* * . $ + $ ",
"$ = $ & 6 % O o * # * = ; % @ # % $ $ = 6 = * * * n = ; 6 , - - & & * + = * w.O $ & O - & = & $ # $ ",
"% $ % $ I = 6 X X # = @ $ o ; X.$ $ $ ; - : = 6 6 $ * , q.6 , , - & + $ = & O o + $ * % $ 6 w $ + $ ",
"$ = & $ 6 ! [ $ X 6 - $ O # s O @ X % > | A n Z 6 6 , : O $ - w j j d = % + & $ $ * * & & 6 6 = * & ",
"& * = $ w ( #.g , , $ . . . X o X # # ; W X.h x 6 - 6 x * , 6 s x x N Z 6 = % $ $ = : * = l Z Z & % ",
"= = + : N >.Z w - % % X . X X o ; *.% $ h >.F x H h - : 9 6 6 w ! ' { N 6 6 = & & * = = : Z { w $ % ",
"& $ % 9 ( { ( % @ * @ O < @.$ # U _ @ o $ s s L 1.6 * $ = # 9 9 #.; + + + $ = = & $ = 6 w l 2., $ & ",
"$ $ = & = :.# % $ o o # Q W X X O O . # a.% * 9 6 7.@.>.O $ 6 < : ,.$ # # & = $ $ ; d W j : - % : & ",
"& & = & o o # % O o o o o X o . X # # O o * * $ # o o $ O O % # # # $ # $ $ * + & = 6 : & O : 0 d & ",
"$ = = & % = = $ # o o o X . o o O # # $ @ * * & $ - + O O # @ # $ = & + # % $ & $ & & % + + : 6 , c ",
"$ & : l W * & $ $ $ + $ O o X.o o O $ $ * * & & % & - O X @ # $ + $ $ & $ # % + % & $ $ % $ = 0 W H ",
"= * 6 - & * + # $ & = - % w ..$ o # * * & $ & & = = 9 % @ # $ * & & $ * & & & = & $ $ + $ $ 8 W { : ",
"- = - * # # $ $ = & - 6 O Z s o O * = & - = & = 9 - o o $ $ s & $ $ ; = ; * , % = & $ % & & l W 6 * ",
"* & & = * 6 d o X + & $ o o O # # % w w W V h = * O r.o $ - , # # $ = O $ + % + + + $ & = = c w # h ",
"$ + & = : l ..o . O $ $ o o . # + = h l W V h V 9 $ @ $ # 6 O , . * O + O & o + $ o O O = $ & Z % = ",
"% $ $ & % $ ; o o o + $ + o o X = 0 d Z Z Z j V Z 8 * $ + $ + o + % w i.o o % % ' s   O $ + * * = : ",
"+ $ & $ O + o o o $ + + $ $ % $ = : w H V Z W ' V d : & $ $ + + # o o o o + @ k x . X o $ + $ w n : ",
"& $ + $ $ O $ + + & + $ % * ; ; - * j V V Z 2.' 0 c j 6 $ $ + $ # # O O O $ - < % X O o O + % l u t ",
"$ & $ $ + $ + + $ + & & d = O @ & & $ l V %.r.{ 6 j c 6 % & = & * O # $ $ $ - , $ O o o $ + = Z &.( ",
"; = & & - & 6 % $ = - N 6 6 6 O o + + % j ' V & 6 : l 5 : w = & & - $ h , * = : - = . @ O # - 2.9 $ ",
"- * - & = 2 N w N ; 6 ; # 1.A O o & - : $ 0 2 : w 6 6 6 ^ 6 [ + $ & # $ # $ $ : ; ; - $ @ $ = l : > ",
", 2 = $ & 6 0 W 8.#.N W % # % @ + $ % w & = Z &.2 : , w ! O X X $ # O O o $ = = , ; % o @ $ * w : % ",
"+ + + X & + 6 W [ 1.Z :.>.@ @ @ + $ = : = : 8 V * = & N ' - + + o # # @ @ O # # 6 % * O $ % - l > $ ",
"$ g 6 @ % g 7 N s % 6 , F @ O @ + * , * & % < $ & 6 5 5 - = = & # O + # $ O $ $ = - > 6 = # s Q Q ..",
"I ' ' @ X = % ..@.H - $ X $ $ $ @ % 6 = @ $ % # $ d ....+ . O + O O $ + + $ - w = : 9 h , W $.* $ ; ",
". X X X X % = ! $ = 6 % $ H } = @ O 6 w.; # % $ $ Z * + F O X # # + $ # & 6 P #.& 9 6 9 s :.* * u.3.",
"@ O % # * % Z @ R $ < 7 N >.=.d.= $ X @ $ $ % @ + 0 ' - X X # + # # # $ $ = # # # , l Z ( } 7 % y.7 ",
"+ + & & = = % . ,.# 6 I 8.] 3.F * # X # $ # = $ N ,.+ O % # + & o $ $ & = * # O $ & n h L W 6 * ; % ",
"$ = & & & w $ o X X $ ] 6.K 7 @ @ # % ; $ $ @ @ I ; X + $ # $ $ # & & w = + $ $ * & h * n 6 % $ % o ",
"o + & & - : & O X % 7 ,.' N I = # # < % # O X X O O + # O $ $ $ $ * - - = o # # # # $ 6 $ * # @ % @ ",
"X + & & 6 d : & $ * ' ' I _ ' F 6 % % % # . X X X O o $ # & # $ 9 6 - = 6 $ O $ + & & * * : $ # # * ",
"+ % & = > ! , s * - Q H L L X._ K = 7 # @ X X @ X # # # + * : : 6 - o * O o & $ $ & * & & = * & & # ",
"= & = N - 9 9 * @ : h / I _ @.x = = ; ; X # o X X X @ @ & - 8 H c O $ O + $ & = = $ $ $ * * - + * * ",
"j : l .., $ - & # : x s A 6 z * = 7 = @ % X X X @   @ # * = Y 7.{ - O o & $ = : & % $ & - 0 8 : = & ",
"I 6 6 N , o - 8 , W L F 7 x ; # $ @ @ % % # $ # @ X @ @ = Y ^ >.2.= = O $ & = $ $ $ & = j 8 + & @ & ",
"Z : : - $ O = : W F _ U > o # % @ @ $ @ $ * # # $ @ @ o # ; V - o + $ $ $ & = = $ * l &.Z ^ : & # $ ",
"j - = + O O & & F Q | I s @ X # @ % $ % @ * % @ @ @ @ @ @ = t : & - 6 X X + $ % = H :.#.Z 8.w $ $ $ ",
"d = = & + = $ w , ( g ; % O @ @ * X @ @ % @ # # $ # @ # % - Y [ Z Z * r.O O $ % w - W % 5 Z o $ $ 6 ",
"Z & = 6 - & & ' W u , = # o o = ; o o % % @ # O @ @ # # % % Y P $ O O X X $ $ , w ..$ : % X + % , & ",
"L 6 x , u % @ ; Y ( ! P $ # @ Z ; # % $ # # # @ = } F o $ $ & # O X + $ + + % I % o . # O X X o # 6 ",
"3.p.7 6 5 = # @ # L 3.6 % $ $ &.A @ # # # # # > W _ O o # & * & + $ $ + & = w l + o $ % + + X O o = ",
"u.&.} r.@.x # # O L s % * , * F : % O @ # # # -.e.6 $ o # $ & 6 w 6 6 6 6 8 N 6 $ $ + + $ . o $ o Q ",
"7.3.0.s.3...: $ O * $ # * - * X O O @ O # # * o =.& - : * o $ h N 6 j 6 V Z 6 + & - & = w 6 6 6 = # ",
"Q :.,.e.| 6 o % # * * = , 6 s - $ # $ $ $ & % # $ = % @ o O % P &.& : w 6.% $ % - & - & : s 6 W l * ",
"= ,.) _ F ; % @ $ - : 9 6 , - 6 # + $ * : > u # o O O # $ + = O o $ 6 0 $ ..o $ L O $ $ - w 1.{ W 9 ",
": &.: L ; $ % O % , 9 9 , 6 - - # # : * > 9 3.P o # o * & 9 : = : 6 & & + X X + $ o $ # : F Z 6 = , ",
"= A % : ; * # # : u h 6 9 6 9 % = h A # # & X o @ o @ * 9 = # # : $ $ % * + + % * % & $ & ! Z : 9 , ",
"$ : A 5 u ; @ # $ - z A h > l - 9 = $ & o $ $ # # & = u x h = O + + + & : l o & 6 x X @ % , > - = s ",
"> u n : : = $ = 6 6 z ..Y > = $ = O # + $ # # & - >.: h u - * O + $ % & + o } $ N ! % O O o o x - - "
};
