/* XPM */
static char *_3d76ca7ad3a4486a61fb5d587152621cTymJFC1XAyuDsXk[] = {
/* columns rows colors chars-per-pixel */
"50 50 240 2 ",
"   c #020304",
".  c #04060A",
"X  c #050A0C",
"o  c #0B0C0E",
"O  c #0C0805",
"+  c #18110C",
"@  c #0B0E12",
"#  c #060D14",
"$  c #0D1114",
"%  c #0C141B",
"&  c #0B151A",
"*  c #111315",
"=  c #11161A",
"-  c #151A1D",
";  c #1C1A1A",
":  c #140E0B",
">  c #24160D",
",  c #3A1E0B",
"<  c #251C15",
"1  c #2B1C13",
"2  c #1C201F",
"3  c #3B200D",
"4  c #392518",
"5  c #2A271E",
"6  c #091922",
"7  c #141D24",
"8  c #1A1E22",
"9  c #141F29",
"0  c #191F2B",
"q  c #152026",
"w  c #1C2226",
"e  c #14222B",
"r  c #1C242B",
"t  c #1F282E",
"y  c #1E2B34",
"u  c #192632",
"i  c #1E313E",
"p  c #212326",
"a  c #22252A",
"s  c #24292C",
"d  c #28292B",
"f  c #2B2525",
"g  c #342D29",
"h  c #34322D",
"j  c #3A312D",
"k  c #232C32",
"l  c #292E33",
"z  c #222B36",
"x  c #253135",
"c  c #2B3136",
"v  c #24343D",
"b  c #2C343A",
"n  c #2E393F",
"m  c #303338",
"M  c #363636",
"N  c #4A240B",
"B  c #582B0D",
"V  c #482D1C",
"C  c #4E331D",
"Z  c #51331D",
"A  c #593417",
"S  c #5A2E10",
"D  c #612F0C",
"F  c #773B0E",
"G  c #612E11",
"H  c #643412",
"J  c #6D3C12",
"K  c #6C3815",
"L  c #723C13",
"P  c #7A3C14",
"I  c #65300B",
"U  c #463327",
"Y  c #523623",
"T  c #553A2A",
"R  c #5A3D2A",
"E  c #573A27",
"W  c #4D3E37",
"Q  c #513F33",
"!  c #6D4215",
"~  c #734513",
"^  c #7D4115",
"/  c #7B421A",
"(  c #6F410F",
")  c #5E412C",
"_  c #4F4238",
"`  c #4F4136",
"'  c #53443B",
"]  c #554335",
"[  c #694C36",
"{  c #72472B",
"}  c #1F3947",
"|  c #2A3440",
" . c #2D3B43",
".. c #273C48",
"X. c #323C43",
"o. c #353F48",
"O. c #233F54",
"+. c #2E424C",
"@. c #2F4047",
"#. c #334146",
"$. c #32434C",
"%. c #3D4349",
"&. c #2B4655",
"*. c #2D4956",
"=. c #2B4659",
"-. c #294657",
";. c #334954",
":. c #324D5A",
">. c #374A56",
",. c #36525E",
"<. c #3A535D",
"1. c #3A5561",
"2. c #3E5965",
"3. c #4B4C45",
"4. c #464947",
"5. c #4A5046",
"6. c #853B0E",
"7. c #863D13",
"8. c #913E12",
"9. c #834315",
"0. c #8C4413",
"q. c #874717",
"w. c #934615",
"e. c #934A16",
"r. c #9B4B16",
"t. c #954D19",
"y. c #9C4D1A",
"u. c #954719",
"i. c #9C5217",
"p. c #B65A09",
"a. c #A34E18",
"s. c #A44D18",
"d. c #A4521B",
"f. c #AC531A",
"g. c #A85715",
"h. c #B45C15",
"j. c #BB5C15",
"k. c #B3561C",
"l. c #B6591C",
"z. c #BB5C1C",
"x. c #B55617",
"c. c #A8530E",
"v. c #BA6409",
"b. c #B7630A",
"n. c #BD631D",
"m. c #B96317",
"M. c #9E5A25",
"N. c #9A5A29",
"B. c #8F4F29",
"V. c #A65621",
"C. c #AB5722",
"Z. c #A25C26",
"A. c #AC5922",
"S. c #A45D2B",
"D. c #B35B25",
"F. c #BB5C22",
"G. c #B65C29",
"H. c #B95B27",
"J. c #9F6129",
"K. c #A56228",
"L. c #BD6224",
"P. c #BA6227",
"I. c #C15D1D",
"U. c #C55B0F",
"Y. c #DB6D0E",
"T. c #DB770F",
"R. c #C3611D",
"E. c #CC621C",
"W. c #CD6B1C",
"Q. c #C86715",
"!. c #DC6C1E",
"~. c #D46819",
"^. c #DA7417",
"/. c #EF740F",
"(. c #E1760D",
"). c #F1770F",
"_. c #F2790D",
"`. c #F87908",
"'. c #EA6E15",
"]. c #E16D1D",
"[. c #E66E17",
"{. c #E57416",
"}. c #EC7415",
"|. c #ED7B15",
" X c #E3731D",
".X c #EB741D",
"XX c #E6791D",
"oX c #EC7B1B",
"OX c #E47912",
"+X c #F17412",
"@X c #F27C14",
"#X c #FB7B15",
"$X c #F6741A",
"%X c #F27C1A",
"&X c #FA7915",
"*X c #C35F22",
"=X c #C46323",
"-X c #C96523",
";X c #CC6A23",
":X c #C46529",
">X c #CA682B",
",X c #D56A23",
"<X c #DC6B23",
"1X c #D56C2C",
"2X c #DB6D2B",
"3X c #D46625",
"4X c #DD7224",
"5X c #DD712A",
"6X c #CC6C30",
"7X c #D66C30",
"8X c #D47032",
"9X c #E36D21",
"0X c #E26C26",
"qX c #E47323",
"wX c #EB7523",
"eX c #E47A22",
"rX c #ED7B23",
"tX c #E3732B",
"yX c #EA762A",
"uX c #EB792B",
"iX c #E4782F",
"pX c #F17B24",
"aX c #F27726",
"sX c #E57934",
"dX c #E97932",
"fX c #E77833",
"gX c #F37C33",
"hX c #F5810F",
"jX c #FA850D",
"kX c #EE8215",
"lX c #ED801B",
"zX c #E28319",
"xX c #F48213",
"cX c #FA8313",
"vX c #F58A12",
"bX c #F78318",
"nX c #FD9011",
"mX c #EE8123",
"MX c #F28122",
"NX c #FB8223",
/* pixels */
"2.,.<.1.1.1.1.1.<.<.1.1.1.1.<.1.<.1.1.1.1.1.<.1.<.1.<.1.1.1.1.1.1.<.<.1.1.1.1.1.1.1.2.|             ",
"2.1.:.;.*.*.*.-.-.-.-.*.*.-.-.-.*.*.=.=.-.*.:.;.*.-.-.-.-.*.-.-.&.-.-.*.-.-.-.;.*.-.=.i           O ",
"2.,.&.+.+.@.%.5.5.5.3.5.#.3.3.3.3.5.5.3.5. .} #.3.3.4.3.3.3.3.3.4.3.5.3.5.4.4. .%.3.5.M     .   O   ",
"2.:.&.$.$.-.A.jXvXvXvXzX6.`._._.hXjXvXbXnXi.8.OXxXxX@X/.+X{.{.MXmXlXmXMXoX{.wX4 8..XqXd.    X .   . ",
"<.,.*.+.+.-.m.hXkXvXvX^.U.jX_._.hXjXjXvXcXcXcXcXxXhX+X/.+X[.oXMXoXmXmXmX$X].aXK 6.$X.Xs.    . o . . ",
"2.,.;.+.;.&.m.hXkXvXxXXX}._._.+XjXcXcXxXjXxX|.@X@X_.+X}.'.{.mXrXoXrXrXrXXX].aXa.0..X9Xr.    X X o X ",
"1.,.*.$.+.+.W.vXOXxXxXkXhX).).).xXxXhX#XxX@X@X@X@X@X+X'.'.XXMXoXeXrXMXpXwX!.9X*Xf.9XwXw.    . . X X ",
"<.:.+.@.&.@.W.kXXXkXkXlX@X).)./.xX@XxXxX@XxX|.@X@XoX}.}.'.rXrXeXeXeXrXrX.X!.].<XI.9XwX8.    . o X o ",
"1.,.$.+.+.$.W.|.{.oXoXzXoX}.}.}.bX|.|.%X@X%XoXXX}.XX[.[.[.rXrXeXeXqXuXrXrX!.!.9X<X].9XP     o o o X ",
"2.:.+.$.+.%.OXcX|.bXbXbXbX&X_.#XcX#X#XcXbX#X&X#X&X&X$X'.$XNXNXwXeXtXuXrXwX].].9X9X0XwXK O   # X # @ ",
"n s k v +.#.N.J.N.N.K.J.J.M.M.M.K.Z.Z.K.S.S.M.M.Z.N.M.N.N.J.N.P.uXqXuXwX9X<X9X9X9X9X9XB O   o $ @ @ ",
"w s w w t r e e e e e 9 e e e e e e e q e q 9 e 9 9 9 7 9 9 6 { aXtXuXrXwX].9X].0X9X,XN :   $ $ @ $ ",
"p s w r d s d s s s a a s a a s a a a a r p w r w w w 8 w r 7 { uX2XuXrX.X9X9X9X].9X*X, +   $ $ $ $ ",
"s w w e y g 9./ ^ ^ ^ ^ 9.9.9.9.9.9.^ 9.q.9.^ 7.9.^ P 9.9.9./ V.tX2XuXrXwX9X9X].9X9Xs., +   $ $ $ @ ",
";.+.|  .} ] ^.~.Q.E.W.W.~.~.~.!.!.~.~.,X!.~.E.E.E.E.E.,X,X5X:X,X0X2XfXwX.X0X9XwX9XaX7.N >   $ $ $ @ ",
"<.>.@.+.+.] oXeX!.!.qXqXeXwXwXpXrXwX9XqXaXyX0X9X9X0XqXrXuXuX5X2X2X2XfXaX'.9X9X$X9X].G N +   = = $ $ ",
"<.*. .#...[ oX4X,X!.!.4XqXwX.XrXwX0X4X9XyX9X<X0X<X<X0XyXyXyX2X2X2X7XdXrXrX9X9XwXaXI.N S + . = $ $ * ",
"<.:.$.+.O.[ pXqX!.!.4X4XqXqXqXuXwXqXqXqXyXyX<X<X<X<XtXyXyXfX7X2X5X1XsXrXaX9X].qXaXr.N G > . = = $ @ ",
"<.&.+.#...{ pX4X,X,X,X<XtXqXqXuXyX0X5XqXyXtX<X<X2X3X0XyXiXiX1X8X8X2XsXgXwX9X9XwX9XK B D 1 . & - = $ ",
">.;.@.@.@.4.4XiX,X3X3X<XtXqXyXuXyX5XtXtXtX0X7X2X7X3X0XdXdXsX2X1X1X7XsXrXwXqXqXpXI.B G H > . = = = = ",
"<.&.#.$.#.} / rX3X3X,X3X5XtXuXiXiXtXtX5XtXtX1X3X1X3XtX6X1XfX1X1X7X1XsXdXwX9XqXrX0.S H H < . = = = = ",
">.b l k v i 2 -X4X<X2X<XtXuXmXgXyXfXyXfXfXfX0X2X2X1XgXS.B.gX1X7X7X5XsXgXpXyXpX;XH L K L 1 . - - = 6 ",
" .a p w z w v M ' _ _ ' ' ' ' ' ' ' ' ' ' ' W W W W ' W M W W W W W ] _ ] _ ` 4 < < < < * * = * @ * ",
"8 a s a k = r w 7 7 7 9 7 7 7 q 9 7 7 7 9 7 7 7 9 9 7 8 0 9 9 9 7 9 7 7 7 w q X @ o $ @ $ $ $ o @ o ",
"p a x r s = l s s s s i s d d x x d d d x s d d l d d s k k s s s x s d p s - * * * = * @ @ = $ o o ",
"s w p w k ; z t y y t t s t t w r r t r r r w r q w q w 0 w 7 w q e q q q = o $ @ @ @ o * * @ @ o o ",
"l 8 w w r $ C ( ~ ~ ~ ! 4 ( ( ( ( ( ~ ( ~ 4 1 A J ! ( K J J J ! ! ! ! ! H 3 3 : > , , , > o * $ : @ ",
"b t w w w - ^ v.b.b.v.g.F U.p.p.b.v.v.v.v.c.c.v.m.p.p.p.p.c.g.h.h.g.m.m.J B I > , I B D < . = $ * $ ",
";. . .| n v r.(.T.T.T.W.Q.Y.Y.Y.T.T.OX(.OXOXT.{.{.T.Y.~.Y.~.^.~.W.!.4Xi.F F 6.V B P L P 5 # 8 - = - ",
">.+.X. .#.v m.jXkXbXvXkXjX@X_._.jXcXjXvXcXcX@X@X+X#X+X'.'.oXMXrXrXbXm.q.e.9.0.L G 0.7.0.4 # w 8 - 7 ",
">.+. . .X.v j.xXOXxXlXkX@X)./.).hX@XxXxX@X@X@X%X|.|.}.}.'.oXmXXXmXn.q.e.e.0.0.7.L 0.7.w.V % p 8 - - ",
"$.$. .X. .v Q.@XOXlXoXkX|.).}.+XxX|.|.bX@X@XoX|.+XoX}.'.[.rXrXrXR.0.i.t.e.0.0.0.8.0.0.w.4 $ 0 8 = 8 ",
">.$.X. . .b Q.xX{.oXlXlX@X}.}.+XxX+X+XxX%X%XoX}.}.}.}.'.}.pXpXm.q.t.t.i.r.w.w.w.w.w.w.r.V 6 a 8 - 8 ",
"#.x v  .@.b Q.XX^.eXeXeXXX X{.XXrXXXXXrXXXXX{.qX X9X].!.9XeXP.e.i.i.i.d.r.w.r.u.u.u.u.y.4 % p 0 - 8 ",
"s p r w x k h h h h h h h h h h h h h g h h h h h h h h g f 7 A d.y.V.d.a.r.r.r.r.r.r.a.U & a 0 8 - ",
"w k a p s s e e e u e e u 9 e 9 q e q 7 q 9 9 9 6 7 e = % 6 # C f.y.Z.d.g.r.s.a.a.a.a.f.C & p w - 8 ",
"p 0 w 8 s s Y Y C Y Z C Y C Z C Z C C Z Z V V V C V 4 4 4 4 4 H A.V.A.f.f.a.s.s.s.d.s.k.U & k w - 8 ",
"c s a s s g j.h.g.h.j.h.j.j.j.j.I.j.h.j.U.z.U.I.s.w.9.0.0.e.9.t.V.V.A.k.h.s.f.f.k.f.d.x.Y & s w 8 - ",
"$.@.n X.| ` XX X!.!.4XqXqXqX].pX.XwXqX9XpXwX3Xx.f.f.f.k.k.l.Z.V.V.V.D.h.l.f.x.x.x.k.k.z.Y 6 k w 8 8 ",
"$. .n m | ] rXqX!.<X!.4X.X.XwXrXwXqX9XqXqX-Xf.f.f.k.k.F.F.P.f.A.V.C.P.L.j.k.x.l.x.l.l.I.Y 7 l w - 8 ",
"$.X.n n | ] aXeX<X,X<X XqXqXwXuXrXqX<XR.F.z.k.C.k.D.z.H.H.H.D.C.D.A.P.n.I.l.l.z.z.z.z.R.T 7 l w 8 8 ",
"%.X.n n v { rX4X<X!.<X2XqXqXwXuX4X=XF.l.F.=XF.l.k.k.F.=X:XH.D.D.D.D.:X=XI.z.z.I.I.z.z.-XR 7 l w 8 8 ",
"$. .n m | _ wXtX,X,X<X<XqXqX<X-X=XF.I.L.:X=Xk.k.F.k.H.>X:X:XG.G.G.G.P.;X-XI.R.R.I.R.R.;XR q l w 8 8 ",
"#. .b b m i Z.wX,X,X3X-X-X>X-X-X-X=X=X=X:X-XF.H.F.F.L.:X:X:XG.G.G.G.6X;X~.I.R.-X-XE.:X~.R q l r 8 8 ",
"o.X.b b m v U <X-X*XF.F.:X>X>X-X-X:X:X:X:X*XH.H.H.*X>XS.S.6XH.:XG.G.6X>XW.-X-XR.-X-X-X1X) r x a 8 8 ",
"%.b m b b m 0 B.E.*X=X*X;X5X5X5X1X1X1X1X7X2X*X*X*X*X7XB.) 2X:XH.G.>X8X5X4X~.,X4X4X4X!.wX) e c w 8 8 ",
"o.b c x b c r f E Y Y Y T T T R E T T T T T T T T Q ) U d T T U j R ) R ) E ) ) ) E R ) j s b p 8 p ",
"X.b c b l b l l y z y y y y y y z y y y y z y z u z z z l y y k l y y y y y y y y y y y l l x a 8 8 ",
"n b c c b c b b m m m m m m m m m l m m m m m m m m m m m m m m b c m m m m m m m m m m l m m a 8 8 ",
"l s a a a s a a a a a a a a a a a a a a a a a a a a a a a a a a a a a a a a a a a a a a a a d 8 8 8 "
};
