/* XPM */
static char *_d3a50987ffc46d6e4033d7e415805a8ZpzdC2IdZFKBf00n[] = {
/* columns rows colors chars-per-pixel */
"50 50 10 1 ",
"  c None",
". c #1A0E13",
"X c #503C1F",
"o c #77291C",
"O c #4B495E",
"+ c #934325",
"@ c #886B2E",
"# c #C39942",
"$ c #88919D",
"% c #CAD5D7",
/* pixels */
"                                                  ",
"                                                  ",
"                                                  ",
"                                                  ",
"                                                  ",
"                                                  ",
"                                                  ",
"                                                  ",
"                                                  ",
"                                                  ",
"                                                  ",
"                                                  ",
"                                                  ",
"                     $$OO                         ",
"                    $$%$OO                        ",
"                    $$$$..                        ",
"                    OO$$%$.                       ",
"                    O%O%%$$                       ",
"                    O%%$$OO                       ",
"                   +.O$$$O                        ",
"                  +++.O$O.                        ",
"                 +++++...oo                       ",
"                $$$+++%$$%oo                      ",
"               $$$$O$$$%%OO$                      ",
"              %%$$$.$$$$$OO$$                     ",
"              .%%%.O%%$$$O$X$                     ",
"              @....OO$%%%$O.X                     ",
"             ###@...OOO$$O..X                     ",
"             ###@...OOOOO...X                     ",
"             @#@ ..@@OOOO..XXO                    ",
"            $$@   .@@@%$$%@.OO                    ",
"            $$$   $$@@%%%%@.OO                    ",
"            $$$  %$$%$....$.OO.                   ",
"            $$O  %%%$$OO..$$..X                   ",
"            OO@@ $$$$OOO..OO.X@                   ",
"            ###@%$$%.OO....$O@@                   ",
"            @## %%%.OO.....$$XX                   ",
"             @@ ...OO. .....$X                    ",
"                 OOOO. .....                      ",
"                 OOO.   ....                      ",
"                $%%O.   .O$$O                     ",
"                $%%$O   O$$$O                     ",
"                O$$O    OOOO                      ",
"                OOO.    ....                      ",
"                OOO.    ...                       ",
"                OO.     ...                       ",
"                $$.     ..O                       ",
"               ...$     OO.O                      ",
"              $%%O.     ..$$OO                    ",
"              $%%$O     .O$$$O                    "
};
